<?xml version="1.0" encoding="UTF-8"?><svg id="Vrstva_2" xmlns="http://www.w3.org/2000/svg" viewBox="0 0 877.3969 260"><g id="Components"><g id="a0946768-8a9d-44d6-809f-9b45e4e94df2_10"><path d="M95.9651,70.9039v78.1363c19.3429-2.5089,34.345-19.0523,34.345-39.0687s-15.0021-36.5587-34.345-39.0676Z" style="fill:#dcc7b7;"/><path d="M112.7333,154.4947c6.9209,3.4112,12.9325,8.3879,17.5768,14.4669v-28.9341c-4.6443,6.079-10.6558,11.0557-17.5768,14.4672Z" style="fill:#dcc7b7;"/><path d="M140.486,200.9795c19.3451-2.5089,34.3472-19.052,34.3472-39.0687v-1.9617c-19.3429,2.5089-34.3472,19.052-34.3472,39.0676v1.9628Z" style="fill:#dcc7b7;"/><path d="M95.9651,159.9491v1.9617c0,20.0164,15.0021,36.5598,34.345,39.0687v-1.9628c0-20.0156-15.0021-36.5587-34.345-39.0676Z" style="fill:#dcc7b7;"/><path d="M140.486,168.9627c8.1031-10.6054,20.3717-17.8663,34.3472-19.2963v-34.2404c-19.3429,2.5089-34.3472,19.0523-34.3472,39.0687v14.468Z" style="fill:#dcc7b7;"/><path d="M174.8332,70.9039c-19.3429,2.5089-34.3472,19.0523-34.3472,39.0676v14.4685c8.1031-10.606,20.3717-17.8666,34.3472-19.2969v-34.2393Z" style="fill:#dcc7b7;"/><path d="M264.1907,118.87c-6.968-8.0354-12.4745-17.5694-15.9673-28.3203-3.4928-10.7506-4.6432-21.7006-3.7294-32.2965.3046-3.532-.0789-7.182-1.2424-10.7657-6.4224-19.7669-32.5526-23.9077-44.773-7.1001,12.2094-16.817.195-40.3875-20.5886-40.3875-3.7689,0-7.3581.7636-10.623,2.1446-9.7947,4.1428-20.5645,6.4337-31.8667,6.4337s-22.0742-2.2909-31.8689-6.4337c-3.2649-1.381-6.8541-2.1446-10.623-2.1446-20.7836,0-32.7958,23.57-20.5886,40.387-12.2226-16.8071-38.3505-12.666-44.773,7.1006-1.1635,3.5837-1.547,7.2337-1.2424,10.7654.9137,10.5961-.2367,21.5459-3.7294,32.2968-3.4928,10.7506-8.9993,20.2846-15.9673,28.3203-2.3205,2.6782-4.1567,5.8563-5.3203,9.4397-6.4246,19.7672,12.2817,38.4762,32.0486,32.0612-19.7625,6.429-23.8995,32.5589-7.0842,44.7757,3.048,2.2148,6.4027,3.707,9.8539,4.5087,10.36,2.4057,20.4199,6.8823,29.5638,13.5266,9.1461,6.6443,16.5108,14.8276,22.0019,23.9368,1.8297,3.0362,4.2838,5.764,7.3318,7.9787,12.0045,8.721,27.4471,5.0918,35.3069-5.2562v-38.579c-24.9732-2.5555-44.521-23.713-44.521-49.3515V50.6051h10.176v10.016c13.9744,1.4303,26.243,8.6903,34.345,19.2955v-44.1526h10.176v44.1537c8.1031-10.6057,20.3717-17.8663,34.3472-19.2966v-10.016h10.176v111.3057c0,25.6385-19.5489,46.796-44.5232,49.3515v38.5754c7.8588,10.351,23.3035,13.9818,35.3091,5.2597,3.048-2.2148,5.5021-4.9423,7.3318-7.9787,5.4912-9.1091,12.8558-17.2925,22.0019-23.9368,9.1439-6.6443,19.2037-11.1209,29.5638-13.5263,3.4512-.802,6.8059-2.2942,9.8539-4.509,16.8153-12.2168,12.6783-38.3467-7.0842-44.7757,19.7669,6.4153,38.4732-12.2938,32.0486-32.0612-1.1635-3.5832-2.9998-6.7615-5.3203-9.4397Z" style="fill:#dcc7b7;"/><path d="M352.0811,105.1542h13.6074l23.3123,26.9909h19.0723l-23.6453-27.4379c3.048-.445,5.8724-1.4114,8.4756-2.8994,2.601-1.4859,4.8316-3.3641,6.6941-5.6322,1.856-2.2683,3.289-4.8148,4.2926-7.6396s1.5054-5.8009,1.5054-8.924c0-3.3464-.596-6.5614-1.7836-9.6471-1.1898-3.0834-2.8639-5.7988-5.0201-8.1414-2.1583-2.3428-4.7593-4.2188-7.8073-5.6322-3.048-1.4114-6.3567-2.1193-9.9262-2.1193h-45.06v78.0732h16.2829v-26.9909ZM352.0811,68.2357h26.0995c1.8581,0,3.495.3354,4.9083,1.0037,1.4133.6706,2.6229,1.5626,3.6264,2.6781,1.0036,1.1155,1.7267,2.3603,2.1737,3.7366.447,1.3764.6683,2.6956.6683,3.9579,0,1.3391-.2213,2.6781-.6683,4.015-.447,1.339-1.1701,2.5662-2.1737,3.6816-1.0036,1.1156-2.2131,2.0273-3.6264,2.7328-1.4133.7079-3.0502,1.0585-4.9083,1.0585h-26.0995v-22.8642Z" style="fill:#dcc7b7;"/><path d="M450.3327,54.0719l-32.0092,78.0732h16.8416l5.7979-13.9425h35.5786l5.8001,13.9425h16.8416l-32.0092-78.0732h-16.8416ZM446.5397,104.5954l12.2686-29.4431,12.1568,29.4431h-24.4254Z" style="fill:#dcc7b7;"/><path d="M558.4075,129.2457c4.9806-1.9329,9.3499-4.6307,13.1056-8.0868,3.7535-3.4581,6.7073-7.5849,8.8656-12.3799,2.1561-4.7972,3.2364-10.0196,3.2364-15.6715,0-5.7243-1.0803-10.9664-3.2364-15.7264-2.1583-4.7578-5.1121-8.8669-8.8656-12.3229-3.7557-3.4583-8.125-6.1517-13.1056-8.0868-4.9828-1.9329-10.3381-2.8994-16.0616-2.8994h-28.8867v78.0732h28.8867c5.7234,0,11.0787-.9665,16.0616-2.8994ZM529.7421,69.2394h12.6038c3.6418,0,7.0075.5589,10.0949,1.6744,3.0852,1.1155,5.7234,2.6956,7.9168,4.7403,2.1934,2.0447,3.9047,4.554,5.1318,7.5279,1.2271,2.9739,1.8406,6.2832,1.8406,9.9255,0,3.6444-.6135,6.9537-1.8406,9.9275-1.2271,2.9739-2.9384,5.4832-5.1318,7.5279-2.1934,2.0469-4.8316,3.6248-7.9168,4.7403-3.0874,1.1155-6.4531,1.6722-10.0949,1.6722h-12.6038v-47.7359Z" style="fill:#dcc7b7;"/><polygon points="656.3084 107.1616 616.492 54.0719 600.2091 54.0719 600.2091 132.145 616.492 132.145 616.492 79.0554 656.3084 132.145 672.5935 132.145 672.5935 54.0719 656.3084 54.0719 656.3084 107.1616" style="fill:#dcc7b7;"/><rect x="694.7532" y="54.0719" width="16.2829" height="78.0732" style="fill:#dcc7b7;"/><path d="M801.121,118.3143l-11.0437-9.1451c-2.6032,3.0484-5.7432,5.448-9.4222,7.1925-3.6834,1.7489-7.7152,2.6211-12.102,2.6211-3.495,0-6.7686-.6487-9.8144-1.9504-3.0502-1.2997-5.7081-3.1229-7.9738-5.4657-2.2701-2.3427-4.0559-5.0931-5.3553-8.2533-1.3016-3.1601-1.9524-6.5614-1.9524-10.2058,0-3.6423.6508-7.0436,1.9524-10.2038,1.2994-3.1603,3.0852-5.9127,5.3553-8.2533,2.2657-2.3427,4.9236-4.1638,7.9738-5.4657,3.0458-1.2995,6.3194-1.9526,9.8144-1.9526,4.3868,0,8.4186.8744,12.102,2.6211,3.679,1.7489,6.819,4.1463,9.4222,7.1948l11.0437-9.1475c-3.793-4.9068-8.5172-8.8099-14.1662-11.7093-5.6489-2.8995-11.8216-4.3502-18.5135-4.3502-5.6533,0-10.9867,1.0782-16.0046,3.2346-5.0201,2.1566-9.4069,5.1129-13.1604,8.867-3.7557,3.7541-6.7139,8.1239-8.8678,13.1053-2.1583,4.9813-3.2342,10.3352-3.2342,16.0595,0,5.6519,1.0759,10.986,3.2342,16.0046,2.154,5.0209,5.1121,9.4082,8.8678,13.1623,3.7535,3.7541,8.1403,6.7104,13.1604,8.867,5.0179,2.1542,10.3513,3.2346,16.0046,3.2346,6.6919,0,12.8646-1.4507,18.5135-4.3501,5.6489-2.8994,10.3732-6.8048,14.1662-11.7116Z" style="fill:#dcc7b7;"/><polygon points="877.3969 68.6829 877.3969 54.0719 816.1658 54.0719 816.1658 132.145 877.3969 132.145 877.3969 117.5341 832.4487 117.5341 832.4487 99.9121 875.1663 99.9121 875.1663 86.3048 832.4487 86.3048 832.4487 68.6829 877.3969 68.6829" style="fill:#dcc7b7;"/><path d="M366.7885,171.8693c-1.0978-1.1719-2.3994-2.1101-3.9047-2.8172-1.5076-.7058-3.1707-1.06-4.9916-1.06h-22.0939v39.0513h8.1447v-13.5006h13.9492c1.8209,0,3.484-.3431,4.9916-1.0326,1.5054-.6872,2.8069-1.6256,3.9047-2.8171,1.0978-1.1894,1.9436-2.5563,2.5374-4.0998.5938-1.5434.8918-3.1526.8918-4.8264,0-1.6729-.298-3.2809-.8918-4.8255-.5938-1.5422-1.4396-2.9005-2.5374-4.0722ZM361.9372,182.7762c-.2454.6687-.607,1.2825-1.0912,1.8405-.4821.5581-1.0781,1.014-1.7836,1.367-.7056.354-1.5273.5295-2.4542.5295h-12.6652v-11.4365h12.6652c.9269,0,1.7486.1678,2.4542.5021.7056.3354,1.3016.7816,1.7836,1.3395.4843.5579.8458,1.1807,1.0912,1.869.241.6885.3615,1.3483.3615,1.9798,0,.6697-.1205,1.3395-.3615,2.0092Z" style="fill:#dcc7b7;"/><rect x="383.33" y="167.9921" width="8.1447" height="39.0513" style="fill:#dcc7b7;"/><polygon points="424.4655 196.4993 412.6396 167.9921 404.2144 167.9921 420.2255 207.0434 428.6485 207.0434 444.6597 167.9921 436.2367 167.9921 424.4655 196.4993" style="fill:#dcc7b7;"/><path d="M488.4992,172.9293c-1.8779-1.8777-4.0625-3.3554-6.5561-4.4351-2.4914-1.0786-5.1691-1.6179-8.033-1.6179-2.8267,0-5.4934.5393-8.0045,1.6179-2.5111,1.0797-4.7067,2.5574-6.5824,4.4351-1.8801,1.8788-3.3569,4.0635-4.435,6.5551-1.0803,2.4915-1.6193,5.1696-1.6193,8.0338,0,2.826.539,5.494,1.6193,8.0054,1.0781,2.5102,2.5549,4.7048,4.435,6.5825,1.8757,1.8788,4.0713,3.3565,6.5824,4.4351,2.5111,1.0786,5.1778,1.6179,8.0045,1.6179,2.8639,0,5.5416-.5393,8.033-1.6179,2.4936-1.0786,4.6782-2.5563,6.5561-4.4351,1.8779-1.8777,3.3547-4.0724,4.435-6.5825,1.0781-2.5114,1.6171-5.1795,1.6171-8.0054,0-2.8642-.539-5.5422-1.6171-8.0338-1.0803-2.4917-2.5571-4.6763-4.435-6.5551ZM485.46,192.5662c-.6333,1.5818-1.5076,2.9487-2.6229,4.1007-1.1153,1.1533-2.4366,2.0641-3.9617,2.7339-1.5251.6686-3.1794,1.004-4.9653,1.004-1.7836,0-3.4402-.3354-4.9653-1.004-1.5229-.6698-2.8442-1.5807-3.9595-2.7339-1.1153-1.152-1.9896-2.5189-2.6229-4.1007-.6333-1.5796-.9488-3.2634-.9488-5.048,0-1.7856.3155-3.4683.9488-5.049.6333-1.5807,1.5076-2.9476,2.6229-4.1007,1.1153-1.1522,2.4366-2.0641,3.9595-2.7339,1.5251-.6686,3.1816-1.0041,4.9653-1.0041,1.7858,0,3.4402.3355,4.9653,1.0041,1.5251.6698,2.8464,1.5818,3.9617,2.7339,1.1153,1.1531,1.9896,2.52,2.6229,4.1007.6311,1.5807.9466,3.2634.9466,5.049,0,1.7846-.3155,3.4684-.9466,5.048Z" style="fill:#dcc7b7;"/><polygon points="523.3503 196.4993 511.5222 167.9921 503.097 167.9921 519.1103 207.0434 527.5333 207.0434 543.5445 167.9921 535.1215 167.9921 523.3503 196.4993" style="fill:#dcc7b7;"/><path d="M565.152,167.9921l-16.0133,39.0513h8.4252l2.9012-6.9739h17.7948l2.9034,6.9739h8.423l-16.0112-39.0513h-8.423ZM563.2522,193.2633l6.1398-14.7271,6.0784,14.7271h-12.2182Z" style="fill:#dcc7b7;"/><path d="M630.862,191.869c1.3016-.7432,2.4169-1.6826,3.346-2.8172.9291-1.1334,1.6478-2.4072,2.1496-3.8212.5018-1.4131.7538-2.9016.7538-4.4636,0-1.6729-.298-3.2809-.894-4.8255-.5938-1.5422-1.4331-2.9005-2.5111-4.0722-1.0781-1.1719-2.3797-2.1101-3.9047-2.8172-1.5251-.7058-3.1794-1.06-4.9653-1.06h-22.5366v39.0513h8.1447v-13.5006h6.8059l11.6594,13.5006h9.5383l-11.8259-13.7241c1.5251-.2225,2.9384-.706,4.24-1.4503ZM623.4995,186.5132h-13.0552v-11.4365h13.0552c.9269,0,1.7464.1678,2.452.5021.7056.3354,1.3125.7816,1.8143,1.3395.5018.5579.8655,1.1807,1.089,1.869.2213.6885.3331,1.3483.3331,1.9798,0,.6697-.1118,1.3395-.3331,2.0092-.2235.6687-.5872,1.2825-1.089,1.8405-.5018.5581-1.1088,1.014-1.8143,1.367-.7056.354-1.5251.5295-2.452.5295Z" style="fill:#dcc7b7;"/><rect x="679.6185" y="167.9921" width="4.4065" height="39.0513" style="fill:#dcc7b7;"/><path d="M738.0843,196.36c1.1898-.9109,2.5769-1.7572,4.1567-2.5388,1.5799-.7805,3.2364-1.5708,4.9653-2.371,1.7289-.7991,3.3284-1.7286,4.7966-2.7886,1.4703-1.06,2.6777-2.3524,3.6264-3.8772s1.4221-3.4212,1.4221-5.6903c0-1.7483-.3813-3.375-1.1438-4.8812-.7625-1.5073-1.8494-2.8084-3.2627-3.9057-1.4133-1.0962-3.1137-1.9424-5.1055-2.5388-1.9896-.5941-4.194-.8922-6.6087-.8922-3.4972,0-6.5276.809-9.0957,2.4269-2.5659,1.6179-4.6125,3.7852-6.1354,6.4993l5.7453,3.5143c.5566-.8177,1.192-1.5423,1.8976-2.1759.7056-.6313,1.4681-1.152,2.2854-1.5621.8195-.4077,1.685-.7246,2.5966-.9482.9094-.2224,1.8121-.3343,2.7061-.3343,1.3388,0,2.5089.1491,3.5125.4462,1.0058.2981,1.8428.6883,2.5111,1.1717.6683.4834,1.1613,1.06,1.4769,1.7287.3155.6697.4777,1.3954.4777,2.1759,0,1.4514-.5609,2.6505-1.6763,3.5988-1.1153.9481-2.5089,1.8229-4.183,2.6221-1.6741.8002-3.4796,1.5993-5.4123,2.3984-1.9348.8002-3.736,1.7857-5.4101,2.9574-1.6741,1.1708-3.0677,2.5936-4.183,4.2674-1.1175,1.6739-1.6763,3.7939-1.6763,6.3601v5.0205h29.4564v-7.2524h-20.0846c.3725-1.3757,1.1548-2.5189,2.3446-3.431Z" style="fill:#dcc7b7;"/><path d="M799.6244,172.846c-1.49-1.8591-3.3197-3.3193-5.4955-4.3793-2.1759-1.06-4.6958-1.5905-7.5597-1.5905-2.8267,0-5.3378.5305-7.5312,1.5905-2.1956,1.06-4.0252,2.5202-5.4955,4.3793-1.4703,1.8602-2.5922,4.0437-3.3745,6.5551-.7823,2.5102-1.1723,5.2155-1.1723,8.1171s.39,5.6059,1.1723,8.1161c.7823,2.5114,1.9042,4.696,3.3745,6.5551,1.4703,1.8602,3.3,3.3193,5.4955,4.3793,2.1934,1.06,4.7045,1.5905,7.5312,1.5905,2.8639,0,5.3838-.5305,7.5597-1.5905,2.1759-1.06,4.0055-2.5191,5.4955-4.3793,1.4856-1.8591,2.6119-4.0437,3.3745-6.5551.7625-2.5102,1.1438-5.2155,1.1438-8.1161s-.3813-5.6069-1.1438-8.1171c-.7625-2.5114-1.8888-4.6949-3.3745-6.5551ZM795.5794,192.2878c-.3155,1.5433-.8568,2.9202-1.6193,4.1281-.7625,1.2091-1.7464,2.1848-2.9537,2.929-1.2117.7443-2.6886,1.116-4.4372,1.116s-3.2255-.3717-4.435-1.116c-1.2095-.7442-2.1956-1.7198-2.9559-2.929-.7625-1.2079-1.3038-2.5848-1.6193-4.1281-.3155-1.5434-.4733-3.1329-.4733-4.7696s.1578-3.2271.4733-4.7705c.3155-1.5423.8568-2.9191,1.6193-4.1281.7603-1.208,1.7464-2.1848,2.9559-2.9291,1.2095-.7431,2.6864-1.1159,4.435-1.1159s3.2255.3728,4.4372,1.1159c1.2074.7443,2.1912,1.7211,2.9537,2.9291.7625,1.209,1.3038,2.5858,1.6193,4.1281.3155,1.5434.4733,3.134.4733,4.7705s-.1578,3.2261-.4733,4.7696Z" style="fill:#dcc7b7;"/><polygon points="813.7599 179.4844 819.1152 182.9429 822.6299 178.4803 822.6299 207.0434 830.7746 207.0434 830.7746 167.9921 822.6299 167.9921 813.7599 179.4844" style="fill:#dcc7b7;"/><path d="M858.4299,196.36c1.1898-.9109,2.5747-1.7572,4.1567-2.5388,1.5799-.7805,3.2342-1.5708,4.9653-2.371,1.7267-.7991,3.3284-1.7286,4.7966-2.7886,1.4681-1.06,2.6755-2.3524,3.6264-3.8772.9488-1.5248,1.4221-3.4212,1.4221-5.6903,0-1.7483-.3813-3.375-1.1438-4.8812-.7625-1.5073-1.8516-2.8084-3.2627-3.9057-1.4133-1.0962-3.1159-1.9424-5.1055-2.5388-1.9918-.5941-4.194-.8922-6.6109-.8922-3.4972,0-6.5254.809-9.0935,2.4269-2.5681,1.6179-4.6125,3.7852-6.1354,6.4993l5.7453,3.5143c.5566-.8177,1.1898-1.5423,1.8954-2.1759.7078-.6313,1.4703-1.152,2.2876-1.5621.8173-.4077,1.6828-.7246,2.5966-.9482.9094-.2224,1.8121-.3343,2.704-.3343,1.341,0,2.5111.1491,3.5147.4462,1.0036.2981,1.8428.6883,2.5111,1.1717.6683.4834,1.1613,1.06,1.4769,1.7287.3155.6697.4755,1.3954.4755,2.1759,0,1.4514-.5588,2.6505-1.6741,3.5988-1.1175.9481-2.5111,1.8229-4.183,2.6221-1.6763.8002-3.4796,1.5993-5.4145,2.3984-1.9326.8002-3.7338,1.7857-5.4101,2.9574-1.6719,1.1708-3.0677,2.5936-4.183,4.2674-1.1153,1.6739-1.6741,3.7939-1.6741,6.3601v5.0205h29.4564v-7.2524h-20.0846c.3725-1.3757,1.1526-2.5189,2.3446-3.431Z" style="fill:#dcc7b7;"/></g></g></svg>