<?xml version="1.0" encoding="UTF-8"?><svg id="Vrstva_2" xmlns="http://www.w3.org/2000/svg" viewBox="0 0 549.1146 488"><g id="Components"><g id="_7008ec5f-5841-40bf-b723-fcdcd0cda3b6_10"><path d="M16.5088,383.5654h13.7962l23.6347,27.3654h19.3381l-23.9746-27.8187c3.0903-.4511,5.9539-1.431,8.5943-2.9396,2.6371-1.5065,4.8987-3.4107,6.7859-5.7104,1.8817-2.2998,3.3346-4.8816,4.3521-7.7457,1.0175-2.8641,1.5263-5.8815,1.5263-9.0478,0-3.3928-.6043-6.6525-1.8084-9.7809-1.2063-3.1262-2.9037-5.8792-5.0886-8.2544-2.1883-2.3753-4.8253-4.2773-7.9167-5.7104-3.0903-1.431-6.4449-2.1487-10.0628-2.1487H0v79.1566h16.5088v-27.3654ZM16.5088,346.1347h26.4617c1.8839,0,3.5435.34,4.9764,1.0176,1.4318.68,2.6582,1.5843,3.6757,2.7152s1.7506,2.3931,2.2038,3.7884c.4532,1.3955.6776,2.733.6776,4.0128,0,1.3577-.2244,2.7152-.6776,4.0707-.4532,1.3575-1.1863,2.6018-2.2038,3.7327-1.0175,1.1311-2.2438,2.0554-3.6757,2.7708-1.4329.7177-3.0925,1.0732-4.9764,1.0732h-26.4617v-23.1815Z" style="fill:#dcc7b7;"/><path d="M116.1227,331.7743l-32.4534,79.1566h17.0753l5.8795-14.136h36.0724l5.8795,14.136h17.0753l-32.4534-79.1566h-17.0753ZM112.2782,382.9989l12.4388-29.8517,12.3255,29.8517h-24.7644Z" style="fill:#dcc7b7;"/><path d="M225.6984,407.9913c5.0497-1.9597,9.4785-4.695,13.2864-8.199,3.8067-3.5061,6.8015-7.6901,8.9898-12.5517,2.185-4.8638,3.2802-10.1586,3.2802-15.889,0-5.8037-1.0953-11.1186-3.2802-15.9447-2.1883-4.8238-5.183-8.9899-8.9898-12.494-3.8078-3.5063-8.2366-6.237-13.2864-8.199-5.0531-1.9597-10.4816-2.9396-16.2856-2.9396h-29.2865v79.1566h29.2865c5.804,0,11.2325-.9799,16.2856-2.9396ZM196.6352,347.1523h12.7776c3.6934,0,7.1058.5667,10.235,1.6976,3.128,1.1309,5.804,2.733,8.0278,4.806,2.2238,2.073,3.9589,4.6172,5.203,7.6324,1.243,3.0151,1.865,6.3703,1.865,10.0632,0,3.695-.6221,7.0502-1.865,10.0653-1.2441,3.0151-2.9792,5.5593-5.203,7.6324-2.2238,2.0753-4.8998,3.6751-8.0278,4.806-3.1291,1.1309-6.5415,1.6954-10.235,1.6954h-12.7776v-48.3983Z" style="fill:#dcc7b7;"/><polygon points="324.958 385.6007 284.5879 331.7743 268.0791 331.7743 268.0791 410.9309 284.5879 410.9309 284.5879 357.1045 324.958 410.9309 341.4679 410.9309 341.4679 331.7743 324.958 331.7743 324.958 385.6007" style="fill:#dcc7b7;"/><rect x="363.9362" y="331.7743" width="16.5088" height="79.1566" style="fill:#dcc7b7;"/><path d="M471.7801,396.9082l-11.1969-9.2721c-2.6393,3.0907-5.824,5.5236-9.5541,7.2923-3.7334,1.7731-7.8212,2.6575-12.27,2.6575-3.5435,0-6.8615-.6577-9.9495-1.9775-3.0925-1.3177-5.7884-3.1662-8.0856-5.5415-2.3016-2.3752-4.1111-5.1637-5.4285-8.3679-1.3196-3.204-1.9795-6.6525-1.9795-10.3475,0-3.6929.6598-7.1414,1.9795-10.3454,1.3174-3.2041,3.1269-5.9948,5.4285-8.3679,2.2972-2.3752,4.9931-4.2216,8.0856-5.5415,3.088-1.3176,6.406-1.9797,9.9495-1.9797,4.4488,0,8.5366.8866,12.27,2.6575,3.7301,1.7731,6.9148,4.2039,9.5541,7.2947l11.1969-9.2744c-3.8467-4.9749-8.6354-8.9321-14.3627-11.8718-5.7284-2.9398-11.9856-4.4106-18.7715-4.4106-5.7307,0-11.1381,1.0932-16.2267,3.2795-5.0886,2.1865-9.5363,5.1839-13.3419,8.99-3.809,3.8062-6.807,8.2366-8.9909,13.2872-2.1883,5.0504-3.2791,10.4787-3.2791,16.2824,0,5.7304,1.0908,11.1385,3.2791,16.2267,2.1838,5.0906,5.1819,9.5388,8.9909,13.345,3.8056,3.8062,8.2533,6.8036,13.3419,8.99,5.0886,2.1841,10.496,3.2795,16.2267,3.2795,6.7859,0,13.0431-1.4708,18.7715-4.4105,5.7273-2.9396,10.516-6.8992,14.3627-11.8741Z" style="fill:#dcc7b7;"/><polygon points="549.1146 346.588 549.1146 331.7743 487.0337 331.7743 487.0337 410.9309 549.1146 410.9309 549.1146 396.1172 503.5426 396.1172 503.5426 378.2506 546.8519 378.2506 546.8519 364.4546 503.5426 364.4546 503.5426 346.588 549.1146 346.588" style="fill:#dcc7b7;"/><path d="M31.4192,451.2064c-1.1119-1.1881-2.4316-2.1394-3.9589-2.8563-1.5274-.7156-3.2136-1.0747-5.0608-1.0747H0v39.5932h8.2577v-13.6879h14.1417c1.8473,0,3.5335-.3478,5.0608-1.0469,1.5274-.6968,2.847-1.6482,3.9589-2.8562,1.113-1.2059,1.9717-2.5918,2.5737-4.1566.6021-1.5649.9042-3.1963.9042-4.8934,0-1.6961-.3021-3.3265-.9042-4.8924-.6021-1.5636-1.4607-2.9407-2.5737-4.1287ZM26.5005,462.2647c-.2477.678-.6143,1.3003-1.1053,1.866-.4888.5658-1.093,1.0281-1.8095,1.386-.7154.3589-1.5474.5368-2.4871.5368h-12.8409v-11.5952h12.8409c.9397,0,1.7717.1701,2.4871.509.7165.34,1.3208.7924,1.8095,1.3581.491.5657.8575,1.197,1.1053,1.8949.2444.698.3666,1.367.3666,2.0072,0,.679-.1222,1.3581-.3666,2.0371Z" style="fill:#dcc7b7;"/><rect x="48.1902" y="447.2754" width="8.2577" height="39.5932" style="fill:#dcc7b7;"/><polygon points="89.8977 476.1782 77.9065 447.2754 69.3644 447.2754 85.5989 486.8686 94.1388 486.8686 110.3721 447.2754 101.8322 447.2754 89.8977 476.1782" style="fill:#dcc7b7;"/><path d="M154.8189,452.2811c-1.9028-1.9038-4.1189-3.402-6.646-4.4967-2.526-1.0936-5.2419-1.6404-8.1444-1.6404-2.8659,0-5.5707.5468-8.1156,1.6404-2.5471,1.0947-4.772,2.5929-6.6748,4.4967-1.905,1.9049-3.4035,4.1198-4.4966,6.6461-1.0941,2.5261-1.6407,5.2413-1.6407,8.1453,0,2.8652.5465,5.5703,1.6407,8.1165,1.093,2.545,2.5915,4.7701,4.4966,6.6739,1.9028,1.9049,4.1278,3.4031,6.6748,4.4967,2.5449,1.0936,5.2497,1.6404,8.1156,1.6404,2.9025,0,5.6185-.5468,8.1444-1.6404,2.5271-1.0936,4.7431-2.5918,6.646-4.4967,1.905-1.9038,3.4024-4.1289,4.4966-6.6739,1.093-2.5462,1.6407-5.2513,1.6407-8.1165,0-2.9039-.5476-5.6192-1.6407-8.1453-1.0941-2.5263-2.5915-4.7412-4.4966-6.6461ZM151.7375,472.1906c-.642,1.6037-1.5285,2.9896-2.6582,4.1576-1.1308,1.1693-2.4715,2.0928-4.0167,2.7719-1.5462.6779-3.2247,1.0179-5.0342,1.0179s-3.4879-.34-5.0342-1.0179c-1.5451-.6791-2.8837-1.6026-4.0145-2.7719-1.1319-1.168-2.0183-2.5539-2.6593-4.1576-.642-1.6015-.962-3.3087-.962-5.118,0-1.8103.3199-3.5164.962-5.119.6409-1.6026,1.5274-2.9885,2.6593-4.1576,1.1308-1.1682,2.4693-2.0928,4.0145-2.7719,1.5462-.6779,3.2247-1.0181,5.0342-1.0181s3.4879.3402,5.0342,1.0181c1.5451.6791,2.8859,1.6037,4.0167,2.7719,1.1297,1.1691,2.0161,2.555,2.6582,4.1576.6409,1.6026.9608,3.3087.9608,5.119,0,1.8094-.3199,3.5165-.9608,5.118Z" style="fill:#dcc7b7;"/><polygon points="190.1537 476.1782 178.1625 447.2754 169.6204 447.2754 185.8548 486.8686 194.3947 486.8686 210.6281 447.2754 202.0882 447.2754 190.1537 476.1782" style="fill:#dcc7b7;"/><path d="M232.5354,447.2754l-16.2345,39.5932h8.5421l2.9403-7.0707h18.0429l2.9425,7.0707h8.5399l-16.2333-39.5932h-8.5399ZM230.6104,472.8973l6.2239-14.9315,6.1639,14.9315h-12.3877Z" style="fill:#dcc7b7;"/><path d="M299.1583,471.4837c1.3185-.7535,2.4504-1.7059,3.3924-2.8563.942-1.1491,1.6695-2.4406,2.1783-3.8742.5088-1.4327.7642-2.9418.7642-4.5256,0-1.6961-.3021-3.3265-.9064-4.8924-.6021-1.5636-1.4518-2.9407-2.5449-4.1287-1.0941-1.1881-2.4138-2.1394-3.9589-2.8563-1.5474-.7156-3.2236-1.0747-5.0342-1.0747h-22.8504v39.5932h8.2577v-13.6879h6.9014l11.8212,13.6879h9.6707l-11.9901-13.9145c1.5451-.2256,2.9792-.7158,4.2988-1.4704ZM291.6926,466.0535h-13.2364v-11.5952h13.2364c.9397,0,1.7717.1701,2.4871.509.7154.34,1.3296.7924,1.8384,1.3581.5088.5657.8775,1.197,1.1053,1.8949.2244.698.3377,1.367.3377,2.0072,0,.679-.1133,1.3581-.3377,2.0371-.2277.678-.5965,1.3003-1.1053,1.866-.5088.5658-1.123,1.0281-1.8384,1.386-.7154.3589-1.5474.5368-2.4871.5368Z" style="fill:#dcc7b7;"/><rect x="348.5915" y="447.2754" width="4.4677" height="39.5932" style="fill:#dcc7b7;"/><path d="M407.8687,476.037c1.2063-.9235,2.6115-1.7816,4.2133-2.574,1.6029-.7913,3.2813-1.5926,5.0353-2.4039,1.7517-.8102,3.3735-1.7526,4.8631-2.8273,1.4896-1.0747,2.7137-2.385,3.6768-3.931.962-1.546,1.4418-3.4686,1.4418-5.7693,0-1.7726-.3866-3.4218-1.1597-4.9489-.7731-1.5282-1.8762-2.8474-3.308-3.9599-1.4329-1.1114-3.158-1.9693-5.1764-2.574-2.0183-.6023-4.2522-.9046-6.7015-.9046-3.5457,0-6.6171.8202-9.2208,2.4606-2.6026,1.6404-4.6765,3.8377-6.2205,6.5895l5.8251,3.5631c.5643-.8291,1.2074-1.5637,1.9228-2.2061.7165-.6401,1.4896-1.168,2.3183-1.5837.8298-.4134,1.7073-.7347,2.6326-.9614.922-.2255,1.8373-.3389,2.7426-.3389,1.3574,0,2.5449.1512,3.5624.4524,1.0186.3023,1.8673.6979,2.546,1.188.6776.4901,1.1775,1.0747,1.4974,1.7527.3199.679.4832,1.4148.4832,2.2061,0,1.4715-.5676,2.6873-1.6984,3.6487-1.1319.9613-2.5449,1.8482-4.2411,2.6584-1.6984.8113-3.5279,1.6215-5.4885,2.4317-1.9606.8113-3.7867,1.8105-5.4852,2.9985-1.6962,1.187-3.1103,2.6296-4.2411,4.3266-1.1319,1.6972-1.6984,3.8466-1.6984,6.4484v5.0901h29.8652v-7.353h-20.3633c.3777-1.3948,1.1697-2.5539,2.3771-3.4786Z" style="fill:#dcc7b7;"/><path d="M470.2616,452.1967c-1.5096-1.8849-3.3657-3.3653-5.5707-4.44-2.2072-1.0747-4.7609-1.6126-7.6646-1.6126-2.867,0-5.4119.5379-7.6368,1.6126-2.2249,1.0747-4.0811,2.5551-5.5707,4.44-1.4907,1.886-2.6293,4.0999-3.4224,6.6461-.792,2.545-1.1875,5.2879-1.1875,8.2297s.3954,5.6837,1.1875,8.2287c.7931,2.5462,1.9317,4.7612,3.4224,6.6461,1.4896,1.886,3.3458,3.3653,5.5707,4.44,2.2249,1.0747,4.7698,1.6126,7.6368,1.6126,2.9037,0,5.4574-.5379,7.6646-1.6126,2.205-1.0747,4.0611-2.554,5.5707-4.44,1.5063-1.8849,2.6493-4.0999,3.4224-6.6461.772-2.545,1.1586-5.2879,1.1586-8.2287s-.3866-5.6847-1.1586-8.2297c-.7731-2.5462-1.9161-4.7601-3.4224-6.6461ZM466.1605,471.9083c-.3199,1.5647-.8675,2.9607-1.6407,4.1854-.7731,1.2259-1.7717,2.2151-2.9958,2.9696-1.2274.7547-2.7259,1.1315-4.4977,1.1315-1.7728,0-3.2713-.3768-4.4966-1.1315-1.2263-.7545-2.2272-1.7437-2.9981-2.9696-.7731-1.2247-1.3208-2.6207-1.6407-4.1854-.3199-1.5649-.4799-3.1764-.4799-4.8358s.16-3.2719.4799-4.8367c.3199-1.5637.8675-2.9596,1.6407-4.1854.7709-1.2248,1.7717-2.2151,2.9981-2.9697,1.2252-.7534,2.7237-1.1314,4.4966-1.1314,1.7717,0,3.2702.378,4.4977,1.1314,1.2241.7547,2.2227,1.7449,2.9958,2.9697.7731,1.2258,1.3208,2.6216,1.6407,4.1854.3199,1.5649.4799,3.1775.4799,4.8367s-.16,3.2709-.4799,4.8358Z" style="fill:#dcc7b7;"/><polygon points="484.5933 458.9272 490.024 462.4336 493.5864 457.9092 493.5864 486.8686 501.8441 486.8686 501.8441 447.2754 493.5864 447.2754 484.5933 458.9272" style="fill:#dcc7b7;"/><path d="M529.8832,476.037c1.2063-.9235,2.6115-1.7816,4.2144-2.574,1.6018-.7913,3.2802-1.5926,5.0342-2.4039,1.7517-.8102,3.3746-1.7526,4.8631-2.8273,1.4896-1.0747,2.7137-2.385,3.6768-3.931.9631-1.546,1.4429-3.4686,1.4429-5.7693,0-1.7726-.3866-3.4218-1.1608-4.9489-.7731-1.5282-1.8762-2.8474-3.3069-3.9599-1.4341-1.1114-3.1591-1.9693-5.1775-2.574-2.0183-.6023-4.2522-.9046-6.7015-.9046-3.5457,0-6.6171.8202-9.2197,2.4606-2.6037,1.6404-4.6765,3.8377-6.2216,6.5895l5.8262,3.5631c.5643-.8291,1.2063-1.5637,1.9217-2.2061.7165-.6401,1.4896-1.168,2.3194-1.5837.8287-.4134,1.7062-.7347,2.6315-.9614.922-.2255,1.8384-.3389,2.7426-.3389,1.3585,0,2.5449.1512,3.5635.4524,1.0175.3023,1.8673.6979,2.5449,1.188.6776.4901,1.1775,1.0747,1.4985,1.7527.3199.679.4821,1.4148.4821,2.2061,0,1.4715-.5665,2.6873-1.6984,3.6487-1.1319.9613-2.5449,1.8482-4.2411,2.6584-1.6984.8113-3.5279,1.6215-5.4885,2.4317-1.9595.8113-3.7867,1.8105-5.4852,2.9985-1.6962,1.187-3.1103,2.6296-4.2411,4.3266-1.1319,1.6972-1.6984,3.8466-1.6984,6.4484v5.0901h29.8652v-7.353h-20.3622c.3777-1.3948,1.1686-2.5539,2.376-3.4786Z" style="fill:#dcc7b7;"/><path d="M234.576,71.8879v79.2206c19.6113-2.5438,34.8216-19.3167,34.8216-39.6109s-15.2103-37.066-34.8216-39.6097Z" style="fill:#dcc7b7;"/><path d="M269.3976,171.3063v-29.3356c-4.7087,6.1633-10.8037,11.2092-17.8207,14.6679,7.017,3.4585,13.112,8.5043,17.8207,14.6677Z" style="fill:#dcc7b7;"/><path d="M279.7148,203.7686c19.6135-2.5438,34.8238-19.3164,34.8238-39.6109v-1.9889c-19.6113,2.5438-34.8238,19.3164-34.8238,39.6097v1.99Z" style="fill:#dcc7b7;"/><path d="M234.576,164.1577c0,20.2942,15.2103,37.0671,34.8216,39.6109v-1.99c0-20.2934-15.2103-37.066-34.8216-39.6097v1.9889Z" style="fill:#dcc7b7;"/><path d="M279.7148,171.3074c8.2155-10.7526,20.6544-18.1142,34.8238-19.5641v-34.7155c-19.6113,2.5438-34.8238,19.3167-34.8238,39.6109v14.6688Z" style="fill:#dcc7b7;"/><path d="M314.5386,71.8879c-19.6113,2.5438-34.8238,19.3167-34.8238,39.6097v14.6693c8.2155-10.7532,20.6544-18.1145,34.8238-19.5647v-34.7144Z" style="fill:#dcc7b7;"/><path d="M378.0368,162.5965c20.0412,6.5043,39.0071-12.4644,32.4934-32.5061-1.1797-3.6329-3.0414-6.8554-5.3941-9.5707-7.0647-8.1469-12.6477-17.8132-16.1889-28.7133-3.5413-10.8998-4.7076-22.0018-3.7812-32.7447.3088-3.581-.08-7.2816-1.2597-10.9151-6.5116-20.0412-33.0043-24.2395-45.3943-7.1986,12.3788-17.0503.1977-40.948-20.8743-40.948-3.8212,0-7.4602.7742-10.7704,2.1744-9.9306,4.2002-20.8499,6.5229-32.309,6.5229s-22.3806-2.3227-32.3112-6.5229c-3.3102-1.4002-6.9492-2.1744-10.7704-2.1744-21.072,0-33.2509,23.8971-20.8743,40.9474-12.3922-17.0403-38.8827-12.8418-45.3943,7.1991-1.1797,3.6335-1.5685,7.3341-1.2597,10.9148.9264,10.7432-.2399,21.8449-3.7812,32.745-3.5413,10.8998-9.1242,20.5661-16.1889,28.7133-2.3527,2.7154-4.2144,5.9375-5.3941,9.5707-6.5138,20.0415,12.4522,39.0102,32.4934,32.5061-20.0368,6.5182-24.2312,33.0107-7.1825,45.3971,3.0903,2.2455,6.4916,3.7584,9.9906,4.5713,10.5038,2.4391,20.7032,6.9778,29.974,13.7143,9.273,6.7365,16.7399,15.0334,22.3072,24.2689,1.855,3.0783,4.3433,5.844,7.4335,8.0895,12.1711,8.842,27.828,5.1625,35.7969-5.3291v-39.1143c-25.3198-2.591-45.1388-24.042-45.1388-50.0363V51.3074h10.3172v10.155c14.1684,1.4502,26.6072,8.8109,34.8216,19.5633v-44.7653h10.3172v44.7664c8.2155-10.7529,20.6544-18.1142,34.8238-19.5644v-10.155h10.3172v112.8503c0,25.9943-19.8201,47.4454-45.141,50.0363v39.1107c7.9678,10.4946,23.6269,14.1759,35.7991,5.3327,3.0903-2.2455,5.5785-5.0109,7.4335-8.0895,5.5674-9.2355,13.0342-17.5324,22.3072-24.2689,9.2708-6.7365,19.4702-11.2753,29.974-13.714,3.499-.8131,6.9003-2.326,9.9906-4.5715,17.0487-12.3863,12.8543-38.8788-7.1825-45.3971Z" style="fill:#dcc7b7;"/></g></g></svg>